<?xml version="1.0" encoding="iso-8859-1"?>
<!-- Uploaded to: SVG Repo, www.svgrepo.com, Generator: SVG Repo Mixer Tools -->
<svg version="1.1" id="Layer_1" xmlns="http://www.w3.org/2000/svg" xmlns:xlink="http://www.w3.org/1999/xlink" 
	 viewBox="0 0 512 512" xml:space="preserve">
<rect x="77.827" y="35.556" style="fill:#5A8BB0;" width="42.667" height="214.244"/>
<path style="fill:#3C5D76;" d="M10.271,64v24.892c0,49.089,39.797,88.886,88.889,88.886s88.889-39.797,88.889-88.886V64H10.271z"/>
<path style="fill:#1E2E3B;" d="M99.16,64c0,0,0,75.378,0,113.778c49.092,0,88.889-39.797,88.889-88.886V64H99.16z"/>
<path style="fill:#3C5D76;" d="M156.049,334.222v-73.941c0-31.42-25.471-56.889-56.889-56.889s-56.889,25.469-56.889,56.889v73.941
	H156.049z"/>
<g>
	<path style="fill:#1E2E3B;" d="M156.049,334.222v-73.941c0-31.42-25.471-56.889-56.889-56.889c0,32.697,0.395,130.83,0.395,130.83
		H156.049z"/>
	<path style="fill:#1E2E3B;" d="M455.11,99.556H512V56.889h-56.89c-27.812,0-51.524,17.836-60.331,42.667h-89.001v248.889h42.667
		V142.222h46.336c8.806,24.831,32.519,42.667,60.331,42.667H512v-42.667h-56.89c-11.763,0-21.333-9.57-21.333-21.333
		S443.346,99.556,455.11,99.556z"/>
</g>
<polygon style="fill:#78B9EB;" points="469.333,277.333 412.444,277.333 412.444,220.444 199.111,220.444 199.111,277.333 
	42.665,277.333 0,305.778 0,412.444 512,412.444 512,305.778 "/>
<polygon style="fill:#5A8BB0;" points="469.333,277.333 412.444,277.333 412.444,220.444 256,220.444 256,412.444 512,412.444 
	512,305.778 "/>
<g>
	<rect x="256" y="277.333" style="fill:#1E2E3B;" width="113.778" height="42.667"/>
	<circle style="fill:#1E2E3B;" cx="426.667" cy="412.444" r="64"/>
</g>
<circle style="fill:#5A8BB0;" cx="426.667" cy="412.444" r="21.333"/>
<circle style="fill:#1E2E3B;" cx="256" cy="412.444" r="64"/>
<circle style="fill:#5A8BB0;" cx="256" cy="412.444" r="21.333"/>
<circle style="fill:#1E2E3B;" cx="85.333" cy="412.444" r="64"/>
<circle style="fill:#5A8BB0;" cx="85.333" cy="412.444" r="21.333"/>
</svg>